<mxfile host="app.diagrams.net" modified="2024-05-27T06:31:10.556Z" agent="Mozilla/5.0 (Macintosh; Intel Mac OS X 10_15_7) AppleWebKit/537.36 (KHTML, like Gecko) Chrome/125.0.0.0 Safari/537.36 Edg/125.0.0.0" etag="COVrLUUrR5jGEWxg2MID" version="24.4.8" type="github">
  <diagram name="第 1 页" id="DGqNnttBW2oHVryQTze6">
    <mxGraphModel dx="1426" dy="825" grid="1" gridSize="10" guides="1" tooltips="1" connect="1" arrows="1" fold="1" page="1" pageScale="1" pageWidth="827" pageHeight="1169" math="0" shadow="0">
      <root>
        <mxCell id="0" />
        <mxCell id="1" parent="0" />
        <mxCell id="DgkACEnbwhwuRpL06PwA-1" value="&lt;div&gt;&lt;br&gt;&lt;/div&gt;Covert()&lt;div&gt;给Op分配dev_ctx&lt;/div&gt;" style="rounded=0;whiteSpace=wrap;html=1;" vertex="1" parent="1">
          <mxGeometry x="270" y="460" width="160" height="60" as="geometry" />
        </mxCell>
        <mxCell id="DgkACEnbwhwuRpL06PwA-6" style="edgeStyle=orthogonalEdgeStyle;rounded=0;orthogonalLoop=1;jettySize=auto;html=1;" edge="1" parent="1" source="DgkACEnbwhwuRpL06PwA-3" target="DgkACEnbwhwuRpL06PwA-1">
          <mxGeometry relative="1" as="geometry" />
        </mxCell>
        <mxCell id="DgkACEnbwhwuRpL06PwA-3" value="ProgramInterpreter::Run&lt;br&gt;&lt;div&gt;调用Convert(&amp;amp;op_func_nodes)&lt;/div&gt;" style="rounded=0;whiteSpace=wrap;html=1;" vertex="1" parent="1">
          <mxGeometry x="280" y="320" width="176" height="60" as="geometry" />
        </mxCell>
      </root>
    </mxGraphModel>
  </diagram>
</mxfile>
